<?xml version="1.0" encoding="UTF-8"?>
<!DOCTYPE svg PUBLIC "-//W3C//DTD SVG 1.0//EN" "http://www.w3.org/TR/2001/REC-SVG-20010904/DTD/svg10.dtd">
<!-- Creator: CorelDRAW 2021 (64-Bit) -->
<svg xmlns="http://www.w3.org/2000/svg" xml:space="preserve" width="19.4732mm" height="23.7066mm" version="1.0" style="shape-rendering:geometricPrecision; text-rendering:geometricPrecision; image-rendering:optimizeQuality; fill-rule:evenodd; clip-rule:evenodd"
viewBox="0 0 1947.32 2370.66"
 xmlns:xlink="http://www.w3.org/1999/xlink"
 xmlns:xodm="http://www.corel.com/coreldraw/odm/2003">
 <defs>
  <style type="text/css">
   <![CDATA[
    .str0 {stroke:black;stroke-width:20;stroke-linecap:round;stroke-linejoin:round;stroke-miterlimit:22.9256}
    .fil5 {fill:black}
    .fil0 {fill:#151B22}
    .fil6 {fill:#33353A}
    .fil3 {fill:#570B12}
    .fil11 {fill:#A7BBC1}
    .fil7 {fill:#D60909}
    .fil8 {fill:#D8E5EA}
    .fil2 {fill:#E40013}
    .fil9 {fill:#FD1919}
    .fil10 {fill:#FDFDFD}
    .fil1 {fill:#FFE000}
    .fil4 {fill:white}
   ]]>
  </style>
 </defs>
 <g id="Layer_x0020_1">
  <metadata id="CorelCorpID_0Corel-Layer"/>
  <g id="_1484116028416">
   <g>
    <path class="fil0" d="M125.3 314.47c0,213.7 78.34,479.38 153.42,607.19 31.65,53.89 -1.93,29.98 -18.47,140.53 -25.76,172.24 53.34,349.26 166.3,380.25l-98.6 103.25c-25.2,15.48 -2.52,0.37 -17.2,15.75 -20.45,21.43 14.24,11.02 -22.77,15.79 0.63,33.38 4.56,30.27 14.63,54.67 17.97,43.55 0.97,1.46 -2.58,51.74 22.56,14.06 44.4,27.49 78.32,28.38 -1.83,25.93 -8.71,47.46 -13.6,76.21 -4.19,24.7 -8.97,51.94 -13.27,83.69 -16.33,120.44 -3.25,108.7 -3.25,173.53 -50.84,31.67 -90.05,53.07 -83.47,117.86 2.84,28.03 3.5,19.35 25.71,27.99 58.89,22.89 130.98,-3.01 178.96,-24.47 46.43,-20.76 22.63,-13.3 71.87,-8.4 118.28,11.76 91.82,13.7 217.37,63.49 37.43,14.85 102.55,36.35 149.88,36.35 6.85,34.6 31.87,58.27 52.62,79.93 27.5,28.71 45.71,33.31 93.31,33.56l4.71 0c2.11,-9.18 41.66,-53.28 1.58,-158.3 -17.98,-47.12 -12.7,-27.96 2.26,-78.25 17.8,-59.82 20.25,-117.84 20.25,-196.18 21.05,-6.62 13.53,-2.69 24.1,-21.28 -77.05,-135.49 16.21,-107.11 72.3,-205.73 -19.86,-26.91 -78.73,-101.78 -90.37,-127.69 20.12,-32.35 111.93,-90.06 126.52,-113.51 -31.86,-70.9 -33.1,-15.8 -17.39,-98.31 9.3,-48.89 7.46,-83.77 -12.73,-128.71 84.77,-52.81 279.5,-114.43 379.55,-141.87l0 -279.77c-0.26,-3.44 -0.55,-6.8 -0.86,-10.06 -9.25,-97.07 0.38,-162.6 0.86,-262.85l0 -7.76c-184.73,50.68 -419.65,191.54 -590.43,297.95l-55.65 -62.17c43.56,-14.27 95.43,-65.75 130.58,-97.9l86.09 -90.18c11.06,-15.41 11.04,-19.43 24.13,-35.44l74.03 -97.27c17.65,-27.24 126.51,-191.67 60.15,-191.67 -198.87,0 -421.63,252.43 -524.18,432.74 -62.72,-35.43 -201.57,-2.07 -253.94,20.24 -46.61,19.86 -82.35,49.71 -119.61,79.08 0,-206.27 -271.13,-744.93 -271.13,-482.4z"/>
    <path class="fil1" d="M294.27 1248.6c44.65,-36.07 88.07,15.57 103.87,42.82 10.17,17.56 22.2,36.29 28.34,59.19 9.59,35.76 7.24,48.78 -12.64,64.52 24.34,24.82 59.81,26.18 82.98,46.83 -57.5,10.78 -36.97,-33.52 -84.01,28.17 -10.91,14.32 -21.09,19.89 -31.32,33.9 -12.47,17.07 -8.12,20.77 -25.9,38.76 -9.6,6.65 -7.46,-23.49 -41.51,17.73 -15.74,19.04 -4.28,-1.05 -13.03,17.99 45.14,87.6 0.56,55.42 19.48,74.84 15.99,18.58 37.03,19.48 63.85,18.04 18.78,-47.54 45.54,-173.49 70.37,-184.05 -33.07,132.66 -210.44,604.45 28.86,625.58 98.85,8.72 122.82,5.79 211,43.35 58.71,25 129.85,52.31 196.21,56.96 85.19,5.96 128.81,-24.57 152.51,-106.56 44.38,-153.49 9.23,-365.06 -16.6,-520.97l-31.95 2.91c7,-9.6 233.18,-138.66 186.37,-331.67 -5.6,-23.12 -16.66,-39.66 -33.24,-52.32 -17.24,-13.16 -41.28,-29.23 -58.6,-32.6 -16.64,14.73 -5.05,5.59 -12.57,15.59 -33.34,44.4 -101.31,46 -213.57,181.28 -17.35,20.9 -8.06,27.26 -30.64,30.61 28.62,-86.16 160.54,-167.44 170.46,-192.31 31.58,-79.07 19.07,-241.53 -23.24,-329.88 -13.19,-27.54 -34.57,-61.88 -46.82,-79.58 -21.16,-30.59 -39.26,-30.09 -58.56,-62.8 25.63,3.05 22.3,18.03 49.01,3.26 58.08,-32.1 87.98,-69.41 132.96,-113.54 39.5,-38.76 40.51,-32.16 52.02,-115.14 8.86,-63.82 10.98,-108.66 -2.59,-170.61 -61.33,28.72 -124.11,96.82 -173.64,146.42l-107.85 135.6c-13.71,20.63 -22.89,33.69 -35.31,49.81 3.11,17.75 -1.61,2.85 16.35,26.79 -67.14,1.28 -105.12,-40.31 -246.84,7.44 -118.85,40.06 -143.57,91.65 -188.37,118.79l5.74 -11.81c14.58,-35.83 8.6,-44.91 -4.66,-104.24 -18.37,-82.17 -76.8,-256.42 -113.34,-307.68l-19.25 20.83c-43.9,68.6 -56.92,165.65 -35.18,243.05 46.78,166.53 59.25,148.7 95.63,249.01 14.47,-11.07 12.39,-20.66 27.6,-25.43 -0.61,14.99 -91.11,205.56 -32.38,341.12z"/>
    <path class="fil1" d="M983.94 858.41c36.43,138.04 80.76,109.95 37.99,369.75 53.35,-14.05 34.05,-31.1 62.13,-52.54 39.08,1.65 68.5,51.63 103.31,41.82 24.52,-6.91 84.63,-39.26 113.5,-51.23l240.53 -85.57c5.49,-75.54 -3.35,-357.98 3.33,-505.38 -187.9,40.18 -509.07,265.36 -560.79,283.15z"/>
    <path class="fil2" d="M931.38 1048.85c-87.55,29.76 -100.34,229.19 -7.31,206.14 88.95,-22.05 98.31,-237.06 7.31,-206.14z"/>
    <path class="fil0" d="M398.98 1037.33c-91.08,29.88 -53.21,187.47 34.54,157.94 84.35,-28.38 40.9,-182.67 -34.54,-157.94z"/>
    <path class="fil2" d="M294.27 1248.6c11.07,39.46 27.41,76.14 45.32,97.7 22.61,27.24 41.33,55.04 74.25,68.83 19.88,-15.74 22.23,-28.76 12.64,-64.52 -6.14,-22.9 -18.17,-41.63 -28.34,-59.19 -15.8,-27.25 -59.22,-78.89 -103.87,-42.82z"/>
    <path class="fil3" d="M521.24 1237.98c32.42,6.23 34.13,-2.26 62.23,12.5 92.62,48.65 122.08,-44.4 140.19,-75.18 12.65,-21.52 11.53,-8.11 19.17,-42.48 -16.44,12.48 -12.89,25.83 -50.88,31.52 -81.89,12.25 -49.92,0.05 -113.5,45.28 -23.01,16.36 -25.37,11.05 -38.34,16.46 -36.13,15.07 31.13,-18.61 -9.58,4.73 -1.52,0.87 -3.45,2.63 -4.67,3.41 -1.25,0.8 -3.24,2.26 -4.62,3.76z"/>
    <path class="fil1" d="M924.54 2257.18c12.99,35.97 53.82,88.69 92.66,94.4 -3.73,-32.61 -16.39,-53.69 -23.92,-79.18 17.19,9.64 20.53,19.15 27.24,39.1 11.05,32.87 1.28,32.69 20.59,45.19 20.55,-20.25 -0.79,-62.11 -8.06,-99.72 19.61,15.53 21.84,37.3 30.23,64.32 3.16,-45.62 -9.68,-85.33 -28.2,-118.41 -25.01,24.99 -55.31,52.49 -110.54,54.3z"/>
    <path class="fil1" d="M1074.11 1788.46c15.41,-10.25 64.96,-60.9 75.88,-76.44 -6.96,-14.6 -78.2,-121.64 -100.9,-124.02 -14.9,21.69 -1.63,30.6 8.94,91.02 5.72,32.72 11.71,73.61 16.08,109.44z"/>
    <path class="fil1" d="M285.25 2126.04c27.55,-14.62 14.09,-18.24 45.77,-25.42l-8.95 13.05c-0.83,1.01 -2.23,2.71 -3.15,3.78 -19.67,22.84 -34.57,25.17 -34.68,52.11 20.38,-8.05 29.37,-33.59 50.9,-40.63 25.47,-8.33 13.83,-0.62 16.98,1.65 -21.46,20.19 -37.98,20.22 -43.65,46.95 32.11,10.57 79.7,0.33 113.2,-10.35 5.61,-1.79 9.07,-2.62 13.94,-5.13 27.5,-14.13 6.45,-1.47 17.89,-12.8 -56.28,-13.04 -72.14,-38.42 -99.25,-82.88 -32.64,12.71 -51.79,30.65 -69,59.67z"/>
    <path class="fil4" d="M770.84 903.35c-0.63,1.7 -1.85,2.29 -2.16,4.95 -1.89,16.16 -17.55,10.55 -1.25,60.82 27.73,7.39 48.95,11.35 53.19,-25.55 4.82,-42.01 -18.47,-43.7 -49.78,-40.22z"/>
    <path class="fil4" d="M381.98 1047.37c-15.87,58.19 0.25,71.83 45.68,62.14 10.11,-29.07 9.95,-28.73 1.28,-59.63l-46.96 -2.51z"/>
    <polygon class="fil0" points="770.84,903.35 125.29,243.51 "/>
   </g>
   <g>
    <path class="fil5" d="M1025.18 1278.67l49.48 47.77 -0.22 2.46c-10.61,21.92 -3.99,27.1 -25.01,34.21 -16.06,5.43 -31.24,-7.28 -35.75,-25.73 -2.7,-11.07 -4.35,-17.72 -0.71,-30.01 1.03,-3.46 2.09,-5.48 3.23,-8.71 0.75,-2.13 3.91,-9.13 8.98,-19.99z"/>
    <path class="fil5" d="M1067.37 1190.25l16.07 -9.73 17.84 4.85 44.04 20.23 65.58 -128.93c3.75,-7.75 134.7,-281.22 140.23,-288.77 28.38,10.31 56.77,18.64 87.17,20.64 15.37,1.01 32.18,1.63 48.5,0.17 32.36,-2.89 75.87,-11.91 106.3,-27.4 44.62,-22.71 86.48,-49.64 119.85,-90.7 32.6,-40.12 41.27,-53.44 63.55,-99.49l21.51 -56.24c6.52,-23.19 10.04,-34.5 14.45,-60.73 11.62,-69.03 6.15,-126.11 -11.02,-196.46 -19.24,-78.87 -71.83,-156.57 -125.33,-200.02 -25.18,-20.46 -30.86,-24.23 -57.53,-38.87l-33.91 -15.98c-19.5,-8.44 -38.63,-12.37 -60.07,-16.88 -35.3,-7.41 -93.42,-7.4 -139.23,8.09 -70.58,23.87 -92.54,39.41 -146.22,88.77 -10.2,9.37 -35.22,40.54 -42.85,52.13 -42.07,63.83 -60.12,110.6 -73.49,189.95 -10.83,64.29 -4.55,120.42 12.22,189.17 16.77,68.73 56.4,131.05 101.43,177.68 15.16,15.7 33.8,28.19 44.02,38.12 -2.47,8.73 -12.43,26.9 -16.97,36.28 -22.61,46.77 -130.5,267.83 -196.14,404.12z"/>
    <polygon class="fil5" points="1349.2,638.85 1350.58,638.38 1349.88,640.63 "/>
    <polygon class="fil5" points="1345.66,636.61 1347.43,637.73 "/>
    <polygon class="fil5" points="1347.43,637.73 1349.2,638.85 "/>
    <g>
     <path class="fil6" d="M1779.59 297.28c9.23,38.47 10.12,47.9 12.69,91.12 1.92,32.43 -3.21,72.23 -10.03,103.67 -6.05,27.86 -19.68,67.25 -31.34,91.36 -2.72,5.62 -4.69,7.96 -7.38,13.07 -39.71,75.29 -104.49,137.46 -177.81,162.78l-7.88 2.66c-33.94,11.33 -42.01,12.47 -79.72,16 -9.36,0.88 -21.53,0.35 -31.5,-0.13 -18.67,-0.9 -40.38,-5.21 -58.23,-10.13 -21.16,-5.82 -47.18,-16.7 -65.86,-28.05 -4.74,-2.88 -7.9,-3.75 -12.93,-6.94 -4.84,-3.07 -6.85,-5.31 -11.24,-8.35 -4.97,-3.45 -7.23,-4.63 -12.14,-8.59 -11.18,-9.01 -22.62,-18.1 -32.84,-28.93 -22.34,-23.67 -41.48,-45.76 -57.66,-76.59 -15.79,-30.11 -27.94,-59.62 -36.45,-90.02l-6.31 -25.83c-7.19,-34.5 -9.86,-70.6 -7.98,-110.34 0.59,-12.59 2.28,-22.3 3.53,-34.44 1.53,-14.83 6,-33.69 9.83,-48.2l4.52 -16.06c9.19,-32.66 27.58,-72.25 45.76,-99.97 20.56,-31.34 44.13,-60.25 72.17,-83.22 4.62,-3.79 8.05,-6.51 12.63,-9.75 26.26,-18.58 51.96,-32.96 78.37,-43.16l22.72 -7.69c29.96,-8.71 61.25,-12.23 95.61,-10.58 44.85,2.16 97.79,20.26 137.02,45.13l23.38 16.93c3.99,3.22 6.74,5.17 10.99,8.86 4.62,4 6.87,5.49 11.45,10.01 4.14,4.09 6.23,5.65 10.4,10.06 25.22,26.72 49.97,57.13 66.26,92.49 10.33,22.42 20.18,43.9 27.32,72.01l2.65 10.82z"/>
     <path class="fil7" d="M1725.87 206.31c11.4,11.63 32.1,68.36 36.86,89.29l-206.59 69.88c-10.8,-28.29 -27.14,-48.17 -44.31,-57.27 -72.52,-38.41 -146.88,25.77 -135.41,118.05l-207.16 70.07c-4.8,-20.9 -12.82,-82 -8.41,-98.92 1.95,1.01 0.15,3.81 2.14,-2.97 3.8,-12.94 3.11,-17.41 10.63,-38.4 11.71,-32.71 22.19,-51.24 40.59,-78.37 80.42,-118.64 246.99,-185.94 373.6,-151.81 16.85,4.54 42.67,12.36 57.39,20.34 28.6,15.5 40.54,21.3 66.74,47.23 5.77,5.72 13.08,16.34 13.93,12.88z"/>
     <path class="fil8" d="M1775.45 411.52c-1.74,-2.57 -3.4,11.33 -5.61,19.44 -32.69,120.18 -132.71,206.2 -236.15,241.19 -74.37,25.15 -157.27,25.8 -223.6,-1.58 -28.38,-11.71 -44.43,-20.34 -69.74,-41.02 -14.22,-11.61 -16.13,-15.72 -26.31,-25.9 -3.59,-3.59 -1.63,-4.18 -2.72,-1.33l-1.65 -1.55c-0.16,-0.2 -0.55,-0.57 -0.74,-0.83 -11.14,-14.25 -30.65,-70.33 -34.97,-86.32 11.87,-6 202.87,-69.6 206.97,-69.48 7.01,18.65 14.57,28.08 16.29,33.33 6.03,12.67 9.96,20.59 18.24,29.98 31.13,35.33 80.45,38 114.5,5.78 25.66,-24.28 33.44,-54.97 31.61,-91.43 -1.06,-5.85 0.34,-12.14 0.33,-18.53 0,-6.92 -0.76,-13.57 -1.66,-20.77l206.79 -69.92c3.78,17.29 6.26,33.65 7.91,50.56 0.81,8.24 1.27,16.27 1.48,24.62l0.26 17.89c-0.04,0.49 -0.19,1.9 -0.27,2.36 -0.39,2.22 -0.42,2.13 -0.96,3.51z"/>
     <path class="fil9" d="M1725.87 206.31c-0.85,3.46 -8.16,-7.16 -13.93,-12.88 -26.2,-25.93 -38.14,-31.73 -66.74,-47.23 -14.72,-7.98 -40.54,-15.8 -57.39,-20.34 -126.61,-34.13 -293.18,33.17 -373.6,151.81 -18.4,27.13 -28.88,45.66 -40.59,78.37 -7.52,20.99 -6.83,25.46 -10.63,38.4 -1.99,6.78 -0.19,3.98 -2.14,2.97 -3.44,-22.82 10.09,-83.83 17.11,-107.21 74.79,-248.93 356.02,-327.94 517.95,-128.91 6.59,8.09 26.45,34.8 29.96,45.02z"/>
     <path class="fil10" d="M1211.32 602.32c1.09,-2.85 -0.87,-2.26 2.72,1.33 10.18,10.18 12.09,14.29 26.31,25.9 25.31,20.68 41.36,29.31 69.74,41.02 66.33,27.38 149.23,26.73 223.6,1.58 103.44,-34.99 203.46,-121.01 236.15,-241.19 2.21,-8.11 3.87,-22.01 5.61,-19.44 5.23,17.13 -11.81,92.89 -16.56,107.16 -11.95,35.91 -23.6,63.21 -42.32,92.68 -84.28,132.74 -234.34,184.06 -364.45,123.93 -42.46,-19.62 -79.04,-48.15 -111.3,-87.8 -6.11,-7.51 -27.78,-35.85 -29.5,-45.17z"/>
     <path class="fil6" d="M1511.22 433.17c-6.21,3.99 -7.91,17.88 -29.67,25.24 -14.5,4.91 -28.17,1.24 -37.15,-4.45 -19.55,-12.39 -30.09,-41.98 -22.63,-66.12 1.7,-5.49 2.76,-4.01 2.54,-9.74 4.75,-4.91 6.15,-10.15 12.34,-16.25 27.38,-26.98 70,-12.7 79.02,27.9 5.11,23.01 -2.95,33.77 -4.45,43.42z"/>
     <path class="fil10" d="M1424.31 378.1c0.22,5.73 -0.84,4.25 -2.54,9.74 -7.46,24.14 3.08,53.73 22.63,66.12 8.98,5.69 22.65,9.36 37.15,4.45 21.76,-7.36 23.46,-21.25 29.67,-25.24 4.68,-1.17 8.43,2.91 12.78,5.67 4.33,2.75 9.02,3.74 11.57,9.57 -13.1,35.82 -63.82,61.45 -105.45,35.07 -41.68,-26.41 -49.52,-89.27 -30.01,-120.91 5.67,-0.62 8.89,3.4 13.22,6.14 4.35,2.76 9.37,4.23 10.98,9.39z"/>
     <path class="fil8" d="M1535.57 448.41c-2.55,-5.83 -7.24,-6.82 -11.57,-9.57 -4.35,-2.76 -8.1,-6.84 -12.78,-5.67 1.5,-9.65 9.56,-20.41 4.45,-43.42 -9.02,-40.6 -51.64,-54.88 -79.02,-27.9 -6.19,6.1 -7.59,11.34 -12.34,16.25 -1.61,-5.16 -6.63,-6.63 -10.98,-9.39 -4.33,-2.74 -7.55,-6.76 -13.22,-6.14 10.27,-33.39 62.26,-65.54 106.51,-37.25 14.94,9.55 30.26,26.38 36.93,53.65 6.15,25.09 1.43,55.92 -7.98,69.44z"/>
     <path class="fil11" d="M1397.22 477.47c3.89,1.58 5.77,5.15 9.22,8.62 38.6,38.75 98.93,34.48 133.11,-12.91 5.92,-8.2 9.76,-15.18 13.08,-23.7 1.9,-4.89 3.09,-7.69 4.74,-13.56 1.3,-4.63 2.09,-10.39 4.2,-14.12 1.83,36.46 -5.95,67.15 -31.61,91.43 -34.05,32.22 -83.37,29.55 -114.5,-5.78 -8.28,-9.39 -12.21,-17.31 -18.24,-29.98z"/>
     <path class="fil10" d="M1452.95 438.64c-0.21,-7.73 11.2,-26.94 14.89,-34.58 3.69,-7.64 11.87,-28.91 17.7,-32.81 36.5,26.99 5.97,88.66 -32.59,67.39z"/>
     <path class="fil8" d="M1485.54 371.25c-5.83,3.9 -14.01,25.17 -17.7,32.81 -3.69,7.64 -15.1,26.85 -14.89,34.58 -16.63,-8.16 -22.9,-33.69 -13.72,-52.71 9.2,-19.05 31.47,-26.59 46.31,-14.68z"/>
    </g>
    <path class="fil5 str0" d="M1068.8 1191.14l6.63 -12.57c-6.74,14.75 -8.72,43.23 -13.77,59.46 -2.59,11.19 -3.32,30.89 -1.45,40.72l12.7 47.34 -45.98 -45.87 41.87 -89.08z"/>
   </g>
   <path class="fil0" d="M767.63 874.35c-91.08,29.87 -53.21,187.46 34.54,157.93 84.35,-28.38 40.9,-182.67 -34.54,-157.93z"/>
   <path class="fil4" d="M764.91 900.18c-15.88,58.19 0.24,71.84 45.68,62.15 10.11,-29.08 9.95,-28.73 1.28,-59.63l-46.96 -2.52z"/>
  </g>
 </g>
</svg>
